# xmcd
#
# Track frame offsets: 
#        150
#        56677
#        89926
#        124836
#        155596
#        183810
#        230766
#
# Disc length: 3454 seconds
#
# Revision: 4
# Processed by: cddbd v1.5.2PL0 Copyright (c) Steve Scherf et al.
# Submitted via: ExactAudioCopyFreeDBPlugin 1.0
#
DISCID=600d7c07
DTITLE=John Coltrane - Blue Train - CD9
DYEAR=2008
DGENRE=Jazz
TTITLE0=Traneing In
TTITLE1=You Leave Me Breathless
TTITLE2=Bass Blues
TTITLE3=Woody'n You
TTITLE4=I Got It Bad  (And That Ain't Good)
TTITLE5=They Can't Take That Away From Me
TTITLE6=Our Delight
EXTD=
EXTT0=
EXTT1=
EXTT2=
EXTT3=
EXTT4=
EXTT5=
EXTT6=
PLAYORDER=
